<mxfile host="app.diagrams.net" modified="2021-11-12T12:31:21.582Z" agent="5.0 (Windows NT 10.0; Win64; x64) AppleWebKit/537.36 (KHTML, like Gecko) Chrome/95.0.4638.69 Safari/537.36" etag="FhCyfPnS8Jbg_rflBGUA" version="15.7.3" type="github">
  <diagram id="R2lEEEUBdFMjLlhIrx00" name="Page-1">
    <mxGraphModel dx="3694" dy="2624" grid="1" gridSize="10" guides="1" tooltips="1" connect="1" arrows="1" fold="1" page="1" pageScale="1" pageWidth="850" pageHeight="1100" math="0" shadow="0" extFonts="Permanent Marker^https://fonts.googleapis.com/css?family=Permanent+Marker">
      <root>
        <mxCell id="0" />
        <mxCell id="1" parent="0" />
        <mxCell id="Wn71OPN7gawvN4pDHcYE-3" value="Gebäude" style="rounded=1;whiteSpace=wrap;html=1;" vertex="1" parent="1">
          <mxGeometry x="350" y="320" width="120" height="60" as="geometry" />
        </mxCell>
        <mxCell id="Wn71OPN7gawvN4pDHcYE-5" value="Adresse" style="ellipse;whiteSpace=wrap;html=1;fontStyle=4" vertex="1" parent="1">
          <mxGeometry x="130" y="-70" width="120" height="80" as="geometry" />
        </mxCell>
        <mxCell id="Wn71OPN7gawvN4pDHcYE-11" value="Volumen" style="ellipse;whiteSpace=wrap;html=1;" vertex="1" parent="1">
          <mxGeometry x="600" y="30" width="120" height="80" as="geometry" />
        </mxCell>
        <mxCell id="Wn71OPN7gawvN4pDHcYE-10" value="Rolle" style="ellipse;whiteSpace=wrap;html=1;" vertex="1" parent="1">
          <mxGeometry x="350" y="30" width="120" height="80" as="geometry" />
        </mxCell>
        <mxCell id="Wn71OPN7gawvN4pDHcYE-14" value="" style="endArrow=none;html=1;rounded=0;exitX=0.5;exitY=0;exitDx=0;exitDy=0;entryX=0.5;entryY=1;entryDx=0;entryDy=0;" edge="1" parent="1" source="Wn71OPN7gawvN4pDHcYE-3" target="Wn71OPN7gawvN4pDHcYE-10">
          <mxGeometry width="50" height="50" relative="1" as="geometry">
            <mxPoint x="390" y="170" as="sourcePoint" />
            <mxPoint x="440" y="120" as="targetPoint" />
          </mxGeometry>
        </mxCell>
        <mxCell id="Wn71OPN7gawvN4pDHcYE-15" value="Besitzer" style="ellipse;whiteSpace=wrap;html=1;fontStyle=4" vertex="1" parent="1">
          <mxGeometry x="30" y="40" width="120" height="80" as="geometry" />
        </mxCell>
        <mxCell id="Wn71OPN7gawvN4pDHcYE-16" value="Straße" style="ellipse;whiteSpace=wrap;html=1;fontStyle=4" vertex="1" parent="1">
          <mxGeometry x="130" y="-230" width="120" height="80" as="geometry" />
        </mxCell>
        <mxCell id="Wn71OPN7gawvN4pDHcYE-17" value="Nummer" style="ellipse;whiteSpace=wrap;html=1;fontStyle=4" vertex="1" parent="1">
          <mxGeometry x="320" y="-230" width="120" height="80" as="geometry" />
        </mxCell>
        <mxCell id="Wn71OPN7gawvN4pDHcYE-18" value="PLZ" style="ellipse;whiteSpace=wrap;html=1;" vertex="1" parent="1">
          <mxGeometry x="-50" y="-230" width="120" height="80" as="geometry" />
        </mxCell>
        <mxCell id="Wn71OPN7gawvN4pDHcYE-20" value="" style="endArrow=none;html=1;rounded=0;exitX=0.5;exitY=0;exitDx=0;exitDy=0;entryX=0.5;entryY=1;entryDx=0;entryDy=0;" edge="1" parent="1" source="Wn71OPN7gawvN4pDHcYE-5" target="Wn71OPN7gawvN4pDHcYE-16">
          <mxGeometry width="50" height="50" relative="1" as="geometry">
            <mxPoint x="200" as="sourcePoint" />
            <mxPoint x="250" y="-50" as="targetPoint" />
          </mxGeometry>
        </mxCell>
        <mxCell id="Wn71OPN7gawvN4pDHcYE-21" value="" style="endArrow=none;html=1;rounded=0;entryX=0.5;entryY=1;entryDx=0;entryDy=0;exitX=0.5;exitY=0;exitDx=0;exitDy=0;" edge="1" parent="1" source="Wn71OPN7gawvN4pDHcYE-5" target="Wn71OPN7gawvN4pDHcYE-17">
          <mxGeometry width="50" height="50" relative="1" as="geometry">
            <mxPoint x="400" y="20" as="sourcePoint" />
            <mxPoint x="450" y="-30" as="targetPoint" />
          </mxGeometry>
        </mxCell>
        <mxCell id="Wn71OPN7gawvN4pDHcYE-22" value="" style="endArrow=none;html=1;rounded=0;entryX=0.5;entryY=1;entryDx=0;entryDy=0;exitX=0.5;exitY=0;exitDx=0;exitDy=0;" edge="1" parent="1" source="Wn71OPN7gawvN4pDHcYE-5" target="Wn71OPN7gawvN4pDHcYE-18">
          <mxGeometry width="50" height="50" relative="1" as="geometry">
            <mxPoint x="180" y="40" as="sourcePoint" />
            <mxPoint x="450" y="-30" as="targetPoint" />
          </mxGeometry>
        </mxCell>
        <mxCell id="Wn71OPN7gawvN4pDHcYE-23" value="" style="endArrow=none;html=1;rounded=0;exitX=0.5;exitY=0;exitDx=0;exitDy=0;entryX=0.5;entryY=1;entryDx=0;entryDy=0;" edge="1" parent="1" source="Wn71OPN7gawvN4pDHcYE-3" target="Wn71OPN7gawvN4pDHcYE-11">
          <mxGeometry width="50" height="50" relative="1" as="geometry">
            <mxPoint x="620" y="170" as="sourcePoint" />
            <mxPoint x="670" y="120" as="targetPoint" />
          </mxGeometry>
        </mxCell>
        <mxCell id="Wn71OPN7gawvN4pDHcYE-24" value="" style="endArrow=none;html=1;rounded=0;entryX=0.5;entryY=1;entryDx=0;entryDy=0;exitX=0.5;exitY=0;exitDx=0;exitDy=0;" edge="1" parent="1" source="Wn71OPN7gawvN4pDHcYE-3" target="Wn71OPN7gawvN4pDHcYE-5">
          <mxGeometry width="50" height="50" relative="1" as="geometry">
            <mxPoint x="390" y="260" as="sourcePoint" />
            <mxPoint x="450" y="170" as="targetPoint" />
          </mxGeometry>
        </mxCell>
        <mxCell id="Wn71OPN7gawvN4pDHcYE-30" value="" style="ellipse;whiteSpace=wrap;html=1;gradientColor=#ffffff;fillColor=none;" vertex="1" parent="1">
          <mxGeometry x="20" y="30" width="140" height="100" as="geometry" />
        </mxCell>
        <mxCell id="Wn71OPN7gawvN4pDHcYE-33" value="" style="endArrow=none;html=1;rounded=0;entryX=0.5;entryY=0;entryDx=0;entryDy=0;exitX=0.5;exitY=1;exitDx=0;exitDy=0;" edge="1" parent="1" source="Wn71OPN7gawvN4pDHcYE-30" target="Wn71OPN7gawvN4pDHcYE-3">
          <mxGeometry width="50" height="50" relative="1" as="geometry">
            <mxPoint x="150" y="250" as="sourcePoint" />
            <mxPoint x="220" y="180" as="targetPoint" />
          </mxGeometry>
        </mxCell>
        <mxCell id="Wn71OPN7gawvN4pDHcYE-35" value="Ableitung" style="rounded=1;whiteSpace=wrap;html=1;fillColor=none;gradientColor=#ffffff;" vertex="1" parent="1">
          <mxGeometry x="350" y="640" width="120" height="60" as="geometry" />
        </mxCell>
        <mxCell id="Wn71OPN7gawvN4pDHcYE-36" value="Enthält" style="rhombus;whiteSpace=wrap;html=1;fillColor=none;gradientColor=#ffffff;" vertex="1" parent="1">
          <mxGeometry x="370" y="460" width="80" height="80" as="geometry" />
        </mxCell>
        <mxCell id="Wn71OPN7gawvN4pDHcYE-37" value="[1..10]" style="endArrow=none;html=1;rounded=0;entryX=0.5;entryY=0;entryDx=0;entryDy=0;exitX=0.5;exitY=1;exitDx=0;exitDy=0;" edge="1" parent="1" source="Wn71OPN7gawvN4pDHcYE-3" target="Wn71OPN7gawvN4pDHcYE-36">
          <mxGeometry width="50" height="50" relative="1" as="geometry">
            <mxPoint x="240" y="520" as="sourcePoint" />
            <mxPoint x="290" y="470" as="targetPoint" />
          </mxGeometry>
        </mxCell>
        <mxCell id="Wn71OPN7gawvN4pDHcYE-38" value="" style="endArrow=none;html=1;rounded=0;exitX=0.53;exitY=-0.007;exitDx=0;exitDy=0;exitPerimeter=0;entryX=0.537;entryY=0.966;entryDx=0;entryDy=0;entryPerimeter=0;" edge="1" parent="1" source="Wn71OPN7gawvN4pDHcYE-35" target="Wn71OPN7gawvN4pDHcYE-36">
          <mxGeometry width="50" height="50" relative="1" as="geometry">
            <mxPoint x="240" y="520" as="sourcePoint" />
            <mxPoint x="414" y="540" as="targetPoint" />
          </mxGeometry>
        </mxCell>
        <mxCell id="Wn71OPN7gawvN4pDHcYE-43" value="" style="endArrow=none;html=1;rounded=0;entryX=0.465;entryY=0.968;entryDx=0;entryDy=0;entryPerimeter=0;exitX=0.477;exitY=0;exitDx=0;exitDy=0;exitPerimeter=0;" edge="1" parent="1" source="Wn71OPN7gawvN4pDHcYE-35" target="Wn71OPN7gawvN4pDHcYE-36">
          <mxGeometry width="50" height="50" relative="1" as="geometry">
            <mxPoint x="350" y="560" as="sourcePoint" />
            <mxPoint x="400" y="510" as="targetPoint" />
          </mxGeometry>
        </mxCell>
        <mxCell id="Wn71OPN7gawvN4pDHcYE-44" value="Etagen" style="ellipse;whiteSpace=wrap;html=1;fillColor=none;gradientColor=#ffffff;" vertex="1" parent="1">
          <mxGeometry x="190" y="770" width="120" height="80" as="geometry" />
        </mxCell>
        <mxCell id="Wn71OPN7gawvN4pDHcYE-45" value="AbleitungsID" style="ellipse;html=1;fillColor=none;gradientColor=#ffffff;fontStyle=0;" vertex="1" parent="1">
          <mxGeometry x="350" y="770" width="120" height="80" as="geometry" />
        </mxCell>
        <mxCell id="Wn71OPN7gawvN4pDHcYE-46" value="Fläche" style="ellipse;whiteSpace=wrap;html=1;fillColor=none;gradientColor=#ffffff;" vertex="1" parent="1">
          <mxGeometry x="520" y="770" width="120" height="80" as="geometry" />
        </mxCell>
        <mxCell id="Wn71OPN7gawvN4pDHcYE-47" value="" style="endArrow=none;html=1;rounded=0;entryX=0.5;entryY=1;entryDx=0;entryDy=0;" edge="1" parent="1" source="Wn71OPN7gawvN4pDHcYE-45" target="Wn71OPN7gawvN4pDHcYE-35">
          <mxGeometry width="50" height="50" relative="1" as="geometry">
            <mxPoint x="390" y="820" as="sourcePoint" />
            <mxPoint x="440" y="770" as="targetPoint" />
          </mxGeometry>
        </mxCell>
        <mxCell id="Wn71OPN7gawvN4pDHcYE-48" value="" style="endArrow=none;html=1;rounded=0;entryX=0.5;entryY=1;entryDx=0;entryDy=0;exitX=0.5;exitY=0;exitDx=0;exitDy=0;" edge="1" parent="1" source="Wn71OPN7gawvN4pDHcYE-44" target="Wn71OPN7gawvN4pDHcYE-35">
          <mxGeometry width="50" height="50" relative="1" as="geometry">
            <mxPoint x="390" y="820" as="sourcePoint" />
            <mxPoint x="440" y="770" as="targetPoint" />
          </mxGeometry>
        </mxCell>
        <mxCell id="Wn71OPN7gawvN4pDHcYE-49" value="" style="endArrow=none;html=1;rounded=0;entryX=0.5;entryY=1;entryDx=0;entryDy=0;exitX=0.5;exitY=0;exitDx=0;exitDy=0;" edge="1" parent="1" source="Wn71OPN7gawvN4pDHcYE-46" target="Wn71OPN7gawvN4pDHcYE-35">
          <mxGeometry width="50" height="50" relative="1" as="geometry">
            <mxPoint x="390" y="820" as="sourcePoint" />
            <mxPoint x="440" y="770" as="targetPoint" />
          </mxGeometry>
        </mxCell>
        <mxCell id="Wn71OPN7gawvN4pDHcYE-52" value="" style="endArrow=none;dashed=1;html=1;rounded=0;" edge="1" parent="1">
          <mxGeometry width="50" height="50" relative="1" as="geometry">
            <mxPoint x="370" y="820" as="sourcePoint" />
            <mxPoint x="450" y="820" as="targetPoint" />
          </mxGeometry>
        </mxCell>
        <mxCell id="Wn71OPN7gawvN4pDHcYE-53" value="Hat" style="rhombus;whiteSpace=wrap;html=1;fillColor=none;gradientColor=#ffffff;" vertex="1" parent="1">
          <mxGeometry x="610" y="630" width="80" height="80" as="geometry" />
        </mxCell>
        <mxCell id="Wn71OPN7gawvN4pDHcYE-56" value="Raum" style="rounded=1;whiteSpace=wrap;html=1;fillColor=none;gradientColor=#ffffff;" vertex="1" parent="1">
          <mxGeometry x="800" y="640" width="120" height="60" as="geometry" />
        </mxCell>
        <mxCell id="Wn71OPN7gawvN4pDHcYE-57" value="[1..20]" style="endArrow=none;html=1;rounded=0;entryX=1;entryY=0.5;entryDx=0;entryDy=0;exitX=0;exitY=0.5;exitDx=0;exitDy=0;" edge="1" parent="1" source="Wn71OPN7gawvN4pDHcYE-53" target="Wn71OPN7gawvN4pDHcYE-35">
          <mxGeometry width="50" height="50" relative="1" as="geometry">
            <mxPoint x="610" y="680" as="sourcePoint" />
            <mxPoint x="750" y="660" as="targetPoint" />
          </mxGeometry>
        </mxCell>
        <mxCell id="Wn71OPN7gawvN4pDHcYE-58" value="" style="endArrow=none;html=1;rounded=0;entryX=0.965;entryY=0.469;entryDx=0;entryDy=0;exitX=0.002;exitY=0.475;exitDx=0;exitDy=0;entryPerimeter=0;exitPerimeter=0;" edge="1" parent="1" source="Wn71OPN7gawvN4pDHcYE-56">
          <mxGeometry width="50" height="50" relative="1" as="geometry">
            <mxPoint x="798.2" y="664.4199999999998" as="sourcePoint" />
            <mxPoint x="687.2" y="667.5199999999998" as="targetPoint" />
          </mxGeometry>
        </mxCell>
        <mxCell id="Wn71OPN7gawvN4pDHcYE-59" value="" style="endArrow=none;html=1;rounded=0;entryX=-0.005;entryY=0.556;entryDx=0;entryDy=0;entryPerimeter=0;exitX=0.955;exitY=0.54;exitDx=0;exitDy=0;exitPerimeter=0;" edge="1" parent="1" target="Wn71OPN7gawvN4pDHcYE-56">
          <mxGeometry width="50" height="50" relative="1" as="geometry">
            <mxPoint x="687.1200000000001" y="673.2" as="sourcePoint" />
            <mxPoint x="800.0000000000002" y="676.4200000000001" as="targetPoint" />
          </mxGeometry>
        </mxCell>
        <mxCell id="Wn71OPN7gawvN4pDHcYE-60" value="Beitreten" style="rhombus;whiteSpace=wrap;html=1;fillColor=none;gradientColor=#ffffff;" vertex="1" parent="1">
          <mxGeometry x="110" y="630" width="80" height="80" as="geometry" />
        </mxCell>
        <mxCell id="Wn71OPN7gawvN4pDHcYE-61" value="[1..2]" style="endArrow=none;html=1;rounded=0;entryX=0;entryY=0.5;entryDx=0;entryDy=0;exitX=1;exitY=0.5;exitDx=0;exitDy=0;" edge="1" parent="1" source="Wn71OPN7gawvN4pDHcYE-60" target="Wn71OPN7gawvN4pDHcYE-35">
          <mxGeometry width="50" height="50" relative="1" as="geometry">
            <mxPoint x="150" y="850" as="sourcePoint" />
            <mxPoint x="200" y="800" as="targetPoint" />
          </mxGeometry>
        </mxCell>
        <mxCell id="Wn71OPN7gawvN4pDHcYE-62" value="Person" style="rounded=1;whiteSpace=wrap;html=1;fillColor=none;gradientColor=#ffffff;" vertex="1" parent="1">
          <mxGeometry x="-180" y="640" width="120" height="60" as="geometry" />
        </mxCell>
        <mxCell id="Wn71OPN7gawvN4pDHcYE-63" value="[1..99]" style="endArrow=none;html=1;rounded=0;entryX=0;entryY=0.5;entryDx=0;entryDy=0;exitX=1;exitY=0.5;exitDx=0;exitDy=0;" edge="1" parent="1" source="Wn71OPN7gawvN4pDHcYE-62" target="Wn71OPN7gawvN4pDHcYE-60">
          <mxGeometry width="50" height="50" relative="1" as="geometry">
            <mxPoint x="-10" y="770" as="sourcePoint" />
            <mxPoint x="40" y="720" as="targetPoint" />
          </mxGeometry>
        </mxCell>
        <mxCell id="Wn71OPN7gawvN4pDHcYE-64" value="" style="rounded=1;whiteSpace=wrap;html=1;fillColor=none;gradientColor=#ffffff;" vertex="1" parent="1">
          <mxGeometry x="355" y="645" width="110" height="50" as="geometry" />
        </mxCell>
        <mxCell id="Wn71OPN7gawvN4pDHcYE-66" value="Fläche" style="ellipse;whiteSpace=wrap;html=1;fillColor=none;gradientColor=#ffffff;" vertex="1" parent="1">
          <mxGeometry x="720" y="500" width="120" height="80" as="geometry" />
        </mxCell>
        <mxCell id="Wn71OPN7gawvN4pDHcYE-67" value="RaumID" style="ellipse;whiteSpace=wrap;html=1;fillColor=none;gradientColor=#ffffff;" vertex="1" parent="1">
          <mxGeometry x="880" y="500" width="120" height="80" as="geometry" />
        </mxCell>
        <mxCell id="Wn71OPN7gawvN4pDHcYE-68" value="" style="endArrow=none;html=1;rounded=0;entryX=0.5;entryY=1;entryDx=0;entryDy=0;exitX=0.5;exitY=0;exitDx=0;exitDy=0;" edge="1" parent="1" source="Wn71OPN7gawvN4pDHcYE-56" target="Wn71OPN7gawvN4pDHcYE-67">
          <mxGeometry width="50" height="50" relative="1" as="geometry">
            <mxPoint x="910" y="680" as="sourcePoint" />
            <mxPoint x="960" y="630" as="targetPoint" />
          </mxGeometry>
        </mxCell>
        <mxCell id="Wn71OPN7gawvN4pDHcYE-69" value="" style="endArrow=none;html=1;rounded=0;entryX=0.5;entryY=1;entryDx=0;entryDy=0;exitX=0.5;exitY=0;exitDx=0;exitDy=0;" edge="1" parent="1" source="Wn71OPN7gawvN4pDHcYE-56" target="Wn71OPN7gawvN4pDHcYE-66">
          <mxGeometry width="50" height="50" relative="1" as="geometry">
            <mxPoint x="910" y="680" as="sourcePoint" />
            <mxPoint x="960" y="630" as="targetPoint" />
          </mxGeometry>
        </mxCell>
        <mxCell id="Wn71OPN7gawvN4pDHcYE-70" value="" style="endArrow=none;dashed=1;html=1;rounded=0;" edge="1" parent="1">
          <mxGeometry width="50" height="50" relative="1" as="geometry">
            <mxPoint x="910" y="550" as="sourcePoint" />
            <mxPoint x="970" y="550" as="targetPoint" />
          </mxGeometry>
        </mxCell>
        <mxCell id="Wn71OPN7gawvN4pDHcYE-74" value="ISA" style="triangle;whiteSpace=wrap;html=1;fillColor=none;gradientColor=#ffffff;direction=south;" vertex="1" parent="1">
          <mxGeometry x="830" y="740" width="60" height="60" as="geometry" />
        </mxCell>
        <mxCell id="Wn71OPN7gawvN4pDHcYE-76" value="" style="endArrow=none;html=1;rounded=0;entryX=0.475;entryY=0.999;entryDx=0;entryDy=0;entryPerimeter=0;exitX=-0.006;exitY=0.55;exitDx=0;exitDy=0;exitPerimeter=0;" edge="1" parent="1" source="Wn71OPN7gawvN4pDHcYE-74" target="Wn71OPN7gawvN4pDHcYE-56">
          <mxGeometry width="50" height="50" relative="1" as="geometry">
            <mxPoint x="860" y="900" as="sourcePoint" />
            <mxPoint x="910" y="850" as="targetPoint" />
            <Array as="points">
              <mxPoint x="857" y="720" />
            </Array>
          </mxGeometry>
        </mxCell>
        <mxCell id="Wn71OPN7gawvN4pDHcYE-77" value="" style="endArrow=none;html=1;rounded=0;entryX=0.525;entryY=1.003;entryDx=0;entryDy=0;entryPerimeter=0;exitX=-0.001;exitY=0.443;exitDx=0;exitDy=0;exitPerimeter=0;" edge="1" parent="1" source="Wn71OPN7gawvN4pDHcYE-74" target="Wn71OPN7gawvN4pDHcYE-56">
          <mxGeometry width="50" height="50" relative="1" as="geometry">
            <mxPoint x="840" y="820" as="sourcePoint" />
            <mxPoint x="890" y="770" as="targetPoint" />
            <Array as="points" />
          </mxGeometry>
        </mxCell>
        <mxCell id="Wn71OPN7gawvN4pDHcYE-78" value="disjoint" style="endArrow=none;html=1;rounded=0;exitX=0.5;exitY=0;exitDx=0;exitDy=0;entryX=1;entryY=0.5;entryDx=0;entryDy=0;" edge="1" parent="1" target="Wn71OPN7gawvN4pDHcYE-74">
          <mxGeometry width="50" height="50" relative="1" as="geometry">
            <mxPoint x="720" y="860" as="sourcePoint" />
            <mxPoint x="880" y="700" as="targetPoint" />
          </mxGeometry>
        </mxCell>
        <mxCell id="Wn71OPN7gawvN4pDHcYE-79" value="disjoint" style="endArrow=none;html=1;rounded=0;entryX=1;entryY=0.5;entryDx=0;entryDy=0;exitX=0.5;exitY=0;exitDx=0;exitDy=0;" edge="1" parent="1" target="Wn71OPN7gawvN4pDHcYE-74">
          <mxGeometry width="50" height="50" relative="1" as="geometry">
            <mxPoint x="860" y="860" as="sourcePoint" />
            <mxPoint x="880" y="700" as="targetPoint" />
          </mxGeometry>
        </mxCell>
        <mxCell id="Wn71OPN7gawvN4pDHcYE-80" value="disjoint" style="endArrow=none;html=1;rounded=0;exitX=0.5;exitY=0;exitDx=0;exitDy=0;" edge="1" parent="1">
          <mxGeometry width="50" height="50" relative="1" as="geometry">
            <mxPoint x="1000" y="860" as="sourcePoint" />
            <mxPoint x="860" y="800" as="targetPoint" />
          </mxGeometry>
        </mxCell>
        <mxCell id="Wn71OPN7gawvN4pDHcYE-81" value="Zimmer" style="rounded=1;whiteSpace=wrap;html=1;fillColor=none;gradientColor=#ffffff;" vertex="1" parent="1">
          <mxGeometry x="800" y="860" width="120" height="60" as="geometry" />
        </mxCell>
        <mxCell id="Wn71OPN7gawvN4pDHcYE-82" value="Etc" style="rounded=1;whiteSpace=wrap;html=1;fillColor=none;gradientColor=#ffffff;" vertex="1" parent="1">
          <mxGeometry x="660" y="860" width="120" height="60" as="geometry" />
        </mxCell>
        <mxCell id="Wn71OPN7gawvN4pDHcYE-83" value="Halle" style="rounded=1;whiteSpace=wrap;html=1;fillColor=none;gradientColor=#ffffff;" vertex="1" parent="1">
          <mxGeometry x="950" y="860" width="120" height="60" as="geometry" />
        </mxCell>
        <mxCell id="Wn71OPN7gawvN4pDHcYE-84" value="" style="rounded=1;whiteSpace=wrap;html=1;fillColor=none;gradientColor=#ffffff;" vertex="1" parent="1">
          <mxGeometry x="665" y="865" width="110" height="50" as="geometry" />
        </mxCell>
        <mxCell id="Wn71OPN7gawvN4pDHcYE-90" value="Name" style="ellipse;whiteSpace=wrap;html=1;fillColor=none;gradientColor=#ffffff;" vertex="1" parent="1">
          <mxGeometry x="-260" y="520" width="120" height="80" as="geometry" />
        </mxCell>
        <mxCell id="Wn71OPN7gawvN4pDHcYE-91" value="PersonID" style="ellipse;whiteSpace=wrap;html=1;fillColor=none;gradientColor=#ffffff;fontStyle=4" vertex="1" parent="1">
          <mxGeometry x="-120" y="520" width="120" height="80" as="geometry" />
        </mxCell>
        <mxCell id="Wn71OPN7gawvN4pDHcYE-94" value="" style="endArrow=none;html=1;rounded=0;entryX=0.5;entryY=0;entryDx=0;entryDy=0;exitX=0.5;exitY=1;exitDx=0;exitDy=0;" edge="1" parent="1" source="Wn71OPN7gawvN4pDHcYE-90" target="Wn71OPN7gawvN4pDHcYE-62">
          <mxGeometry width="50" height="50" relative="1" as="geometry">
            <mxPoint x="-170" y="770" as="sourcePoint" />
            <mxPoint x="-120" y="720" as="targetPoint" />
          </mxGeometry>
        </mxCell>
        <mxCell id="Wn71OPN7gawvN4pDHcYE-95" value="" style="endArrow=none;html=1;rounded=0;entryX=0.5;entryY=0;entryDx=0;entryDy=0;exitX=0.5;exitY=1;exitDx=0;exitDy=0;" edge="1" parent="1" source="Wn71OPN7gawvN4pDHcYE-91" target="Wn71OPN7gawvN4pDHcYE-62">
          <mxGeometry width="50" height="50" relative="1" as="geometry">
            <mxPoint x="-170" y="770" as="sourcePoint" />
            <mxPoint x="-120" y="720" as="targetPoint" />
          </mxGeometry>
        </mxCell>
        <mxCell id="Wn71OPN7gawvN4pDHcYE-96" value="" style="ellipse;whiteSpace=wrap;html=1;fillColor=none;gradientColor=#ffffff;" vertex="1" parent="1">
          <mxGeometry x="1050" y="500" width="120" height="80" as="geometry" />
        </mxCell>
        <mxCell id="Wn71OPN7gawvN4pDHcYE-97" value="Funktionen" style="ellipse;whiteSpace=wrap;html=1;fillColor=none;gradientColor=#ffffff;" vertex="1" parent="1">
          <mxGeometry x="1055" y="505" width="110" height="70" as="geometry" />
        </mxCell>
        <mxCell id="Wn71OPN7gawvN4pDHcYE-98" value="" style="endArrow=none;html=1;rounded=0;entryX=0.5;entryY=0;entryDx=0;entryDy=0;exitX=0.5;exitY=1;exitDx=0;exitDy=0;" edge="1" parent="1" source="Wn71OPN7gawvN4pDHcYE-96" target="Wn71OPN7gawvN4pDHcYE-56">
          <mxGeometry width="50" height="50" relative="1" as="geometry">
            <mxPoint x="920" y="770" as="sourcePoint" />
            <mxPoint x="970" y="720" as="targetPoint" />
          </mxGeometry>
        </mxCell>
        <mxCell id="Wn71OPN7gawvN4pDHcYE-100" value="" style="endArrow=none;html=1;rounded=0;entryX=0.542;entryY=0.999;entryDx=0;entryDy=0;entryPerimeter=0;" edge="1" parent="1" target="Wn71OPN7gawvN4pDHcYE-101">
          <mxGeometry width="50" height="50" relative="1" as="geometry">
            <mxPoint x="-120" y="640" as="sourcePoint" />
            <mxPoint x="80" y="600" as="targetPoint" />
          </mxGeometry>
        </mxCell>
        <mxCell id="Wn71OPN7gawvN4pDHcYE-101" value="" style="ellipse;whiteSpace=wrap;html=1;fillColor=none;gradientColor=#ffffff;" vertex="1" parent="1">
          <mxGeometry x="30" y="520" width="120" height="80" as="geometry" />
        </mxCell>
        <mxCell id="Wn71OPN7gawvN4pDHcYE-102" value="Kontaktdaten" style="ellipse;whiteSpace=wrap;html=1;fillColor=none;gradientColor=#ffffff;" vertex="1" parent="1">
          <mxGeometry x="40" y="530" width="100" height="60" as="geometry" />
        </mxCell>
        <mxCell id="Wn71OPN7gawvN4pDHcYE-103" value="" style="ellipse;whiteSpace=wrap;html=1;fillColor=none;gradientColor=#ffffff;" vertex="1" parent="1">
          <mxGeometry x="110" y="400" width="120" height="80" as="geometry" />
        </mxCell>
        <mxCell id="Wn71OPN7gawvN4pDHcYE-104" value="" style="ellipse;whiteSpace=wrap;html=1;fillColor=none;gradientColor=#ffffff;" vertex="1" parent="1">
          <mxGeometry x="-50" y="400" width="120" height="80" as="geometry" />
        </mxCell>
        <mxCell id="Wn71OPN7gawvN4pDHcYE-105" value="" style="endArrow=none;html=1;rounded=0;entryX=0.5;entryY=1;entryDx=0;entryDy=0;exitX=0.5;exitY=0;exitDx=0;exitDy=0;" edge="1" parent="1" source="Wn71OPN7gawvN4pDHcYE-101" target="Wn71OPN7gawvN4pDHcYE-104">
          <mxGeometry width="50" height="50" relative="1" as="geometry">
            <mxPoint x="30" y="510" as="sourcePoint" />
            <mxPoint x="80" y="460" as="targetPoint" />
          </mxGeometry>
        </mxCell>
        <mxCell id="Wn71OPN7gawvN4pDHcYE-107" value="" style="endArrow=none;html=1;rounded=0;entryX=0.5;entryY=1;entryDx=0;entryDy=0;exitX=0.5;exitY=0;exitDx=0;exitDy=0;" edge="1" parent="1" source="Wn71OPN7gawvN4pDHcYE-101" target="Wn71OPN7gawvN4pDHcYE-103">
          <mxGeometry width="50" height="50" relative="1" as="geometry">
            <mxPoint x="100" y="530" as="sourcePoint" />
            <mxPoint x="20" y="490" as="targetPoint" />
          </mxGeometry>
        </mxCell>
        <mxCell id="Wn71OPN7gawvN4pDHcYE-112" value="Emails" style="ellipse;whiteSpace=wrap;html=1;fillColor=none;gradientColor=#ffffff;" vertex="1" parent="1">
          <mxGeometry x="-35" y="410" width="90" height="60" as="geometry" />
        </mxCell>
        <mxCell id="Wn71OPN7gawvN4pDHcYE-113" value="Telefonnummer" style="ellipse;whiteSpace=wrap;html=1;fillColor=none;gradientColor=#ffffff;" vertex="1" parent="1">
          <mxGeometry x="125" y="410" width="90" height="60" as="geometry" />
        </mxCell>
        <mxCell id="Wn71OPN7gawvN4pDHcYE-117" value="" style="endArrow=none;html=1;rounded=0;entryX=0.523;entryY=1.009;entryDx=0;entryDy=0;entryPerimeter=0;exitX=-0.01;exitY=0.472;exitDx=0;exitDy=0;exitPerimeter=0;" edge="1" parent="1" source="Wn71OPN7gawvN4pDHcYE-123" target="Wn71OPN7gawvN4pDHcYE-62">
          <mxGeometry width="50" height="50" relative="1" as="geometry">
            <mxPoint x="-118.39999999999986" y="771.6799999999998" as="sourcePoint" />
            <mxPoint x="-160" y="730" as="targetPoint" />
          </mxGeometry>
        </mxCell>
        <mxCell id="Wn71OPN7gawvN4pDHcYE-118" value="" style="endArrow=none;html=1;rounded=0;entryX=0.49;entryY=1.012;entryDx=0;entryDy=0;exitX=0.004;exitY=0.532;exitDx=0;exitDy=0;exitPerimeter=0;entryPerimeter=0;" edge="1" parent="1" source="Wn71OPN7gawvN4pDHcYE-123" target="Wn71OPN7gawvN4pDHcYE-62">
          <mxGeometry width="50" height="50" relative="1" as="geometry">
            <mxPoint x="-122.00000000000023" y="771.8400000000001" as="sourcePoint" />
            <mxPoint x="-90" y="700" as="targetPoint" />
          </mxGeometry>
        </mxCell>
        <mxCell id="Wn71OPN7gawvN4pDHcYE-119" value="" style="endArrow=none;html=1;rounded=0;entryX=0.5;entryY=0;entryDx=0;entryDy=0;" edge="1" parent="1" target="Wn71OPN7gawvN4pDHcYE-123">
          <mxGeometry width="50" height="50" relative="1" as="geometry">
            <mxPoint x="40" y="800" as="sourcePoint" />
            <mxPoint x="-100" y="800" as="targetPoint" />
          </mxGeometry>
        </mxCell>
        <mxCell id="Wn71OPN7gawvN4pDHcYE-120" value="" style="endArrow=none;html=1;rounded=0;" edge="1" parent="1">
          <mxGeometry width="50" height="50" relative="1" as="geometry">
            <mxPoint x="39.66" y="890" as="sourcePoint" />
            <mxPoint x="39.66" y="800" as="targetPoint" />
            <Array as="points">
              <mxPoint x="39.66" y="810" />
            </Array>
          </mxGeometry>
        </mxCell>
        <mxCell id="Wn71OPN7gawvN4pDHcYE-121" value="Zauberer" style="rounded=1;whiteSpace=wrap;html=1;fillColor=none;gradientColor=#ffffff;" vertex="1" parent="1">
          <mxGeometry x="-20" y="890" width="120" height="60" as="geometry" />
        </mxCell>
        <mxCell id="Wn71OPN7gawvN4pDHcYE-123" value="ISA" style="triangle;whiteSpace=wrap;html=1;fillColor=none;gradientColor=#ffffff;direction=south;" vertex="1" parent="1">
          <mxGeometry x="-155" y="770" width="70" height="60" as="geometry" />
        </mxCell>
        <mxCell id="Wn71OPN7gawvN4pDHcYE-124" value="" style="endArrow=none;html=1;rounded=0;entryX=1;entryY=0.5;entryDx=0;entryDy=0;" edge="1" parent="1" target="Wn71OPN7gawvN4pDHcYE-123">
          <mxGeometry width="50" height="50" relative="1" as="geometry">
            <mxPoint x="-120" y="970" as="sourcePoint" />
            <mxPoint x="280" y="780" as="targetPoint" />
          </mxGeometry>
        </mxCell>
        <mxCell id="Wn71OPN7gawvN4pDHcYE-125" value="ISA" style="triangle;whiteSpace=wrap;html=1;fillColor=none;gradientColor=#ffffff;direction=south;" vertex="1" parent="1">
          <mxGeometry x="-155" y="970" width="70" height="60" as="geometry" />
        </mxCell>
        <mxCell id="Wn71OPN7gawvN4pDHcYE-126" value="" style="endArrow=none;html=1;rounded=0;exitX=0.5;exitY=0;exitDx=0;exitDy=0;entryX=0.5;entryY=0;entryDx=0;entryDy=0;" edge="1" parent="1" source="Wn71OPN7gawvN4pDHcYE-125">
          <mxGeometry width="50" height="50" relative="1" as="geometry">
            <mxPoint x="-70" y="1010" as="sourcePoint" />
            <mxPoint x="-30" y="1060" as="targetPoint" />
          </mxGeometry>
        </mxCell>
        <mxCell id="Wn71OPN7gawvN4pDHcYE-127" value="" style="endArrow=none;html=1;rounded=0;entryX=0.5;entryY=1;entryDx=0;entryDy=0;exitX=0.5;exitY=0;exitDx=0;exitDy=0;" edge="1" parent="1" target="Wn71OPN7gawvN4pDHcYE-125">
          <mxGeometry width="50" height="50" relative="1" as="geometry">
            <mxPoint x="-200" y="1060" as="sourcePoint" />
            <mxPoint x="-140" y="999.8" as="targetPoint" />
          </mxGeometry>
        </mxCell>
        <mxCell id="Wn71OPN7gawvN4pDHcYE-132" value="Besucher" style="rounded=1;whiteSpace=wrap;html=1;fillColor=none;gradientColor=#ffffff;" vertex="1" parent="1">
          <mxGeometry x="-90" y="1060" width="120" height="60" as="geometry" />
        </mxCell>
        <mxCell id="Wn71OPN7gawvN4pDHcYE-133" value="Arbeiter" style="rounded=1;whiteSpace=wrap;html=1;fillColor=none;gradientColor=#ffffff;" vertex="1" parent="1">
          <mxGeometry x="-260" y="1060" width="120" height="60" as="geometry" />
        </mxCell>
        <mxCell id="Wn71OPN7gawvN4pDHcYE-136" value="[0..*]" style="endArrow=none;html=1;rounded=0;exitX=1;exitY=0.5;exitDx=0;exitDy=0;" edge="1" parent="1" source="Wn71OPN7gawvN4pDHcYE-137">
          <mxGeometry width="50" height="50" relative="1" as="geometry">
            <mxPoint x="-240" y="680" as="sourcePoint" />
            <mxPoint x="-180" y="670" as="targetPoint" />
            <Array as="points">
              <mxPoint x="-230" y="670" />
            </Array>
          </mxGeometry>
        </mxCell>
        <mxCell id="Wn71OPN7gawvN4pDHcYE-137" value="Erfühlen" style="rhombus;whiteSpace=wrap;html=1;fillColor=none;gradientColor=#ffffff;" vertex="1" parent="1">
          <mxGeometry x="-350" y="630" width="80" height="80" as="geometry" />
        </mxCell>
        <mxCell id="Wn71OPN7gawvN4pDHcYE-140" value="[0..*]" style="endArrow=none;html=1;rounded=0;entryX=0;entryY=0.5;entryDx=0;entryDy=0;" edge="1" parent="1" target="Wn71OPN7gawvN4pDHcYE-137">
          <mxGeometry width="50" height="50" relative="1" as="geometry">
            <mxPoint x="-440" y="670" as="sourcePoint" />
            <mxPoint x="-80" y="620" as="targetPoint" />
          </mxGeometry>
        </mxCell>
        <mxCell id="Wn71OPN7gawvN4pDHcYE-141" value="Aufgaben&amp;nbsp;" style="rounded=1;whiteSpace=wrap;html=1;fillColor=none;gradientColor=#ffffff;" vertex="1" parent="1">
          <mxGeometry x="-560" y="640" width="120" height="60" as="geometry" />
        </mxCell>
        <mxCell id="Wn71OPN7gawvN4pDHcYE-142" value="Typ" style="ellipse;whiteSpace=wrap;html=1;fillColor=none;gradientColor=#ffffff;" vertex="1" parent="1">
          <mxGeometry x="-560" y="490" width="120" height="80" as="geometry" />
        </mxCell>
        <mxCell id="Wn71OPN7gawvN4pDHcYE-143" value="Beschreibung" style="ellipse;whiteSpace=wrap;html=1;fillColor=none;gradientColor=#ffffff;" vertex="1" parent="1">
          <mxGeometry x="-460" y="780" width="120" height="80" as="geometry" />
        </mxCell>
        <mxCell id="Wn71OPN7gawvN4pDHcYE-144" value="Abgabe-Frist" style="ellipse;whiteSpace=wrap;html=1;fillColor=none;gradientColor=#ffffff;" vertex="1" parent="1">
          <mxGeometry x="-650" y="780" width="120" height="80" as="geometry" />
        </mxCell>
        <mxCell id="Wn71OPN7gawvN4pDHcYE-145" value="" style="endArrow=none;html=1;rounded=0;exitX=0.5;exitY=0;exitDx=0;exitDy=0;" edge="1" parent="1" source="Wn71OPN7gawvN4pDHcYE-144">
          <mxGeometry width="50" height="50" relative="1" as="geometry">
            <mxPoint x="-450" y="670" as="sourcePoint" />
            <mxPoint x="-500" y="700" as="targetPoint" />
          </mxGeometry>
        </mxCell>
        <mxCell id="Wn71OPN7gawvN4pDHcYE-146" value="" style="endArrow=none;html=1;rounded=0;exitX=0.5;exitY=1;exitDx=0;exitDy=0;entryX=0.5;entryY=0;entryDx=0;entryDy=0;" edge="1" parent="1" source="Wn71OPN7gawvN4pDHcYE-141" target="Wn71OPN7gawvN4pDHcYE-143">
          <mxGeometry width="50" height="50" relative="1" as="geometry">
            <mxPoint x="-450" y="670" as="sourcePoint" />
            <mxPoint x="-400" y="620" as="targetPoint" />
          </mxGeometry>
        </mxCell>
        <mxCell id="Wn71OPN7gawvN4pDHcYE-147" value="" style="endArrow=none;html=1;rounded=0;exitX=0.5;exitY=1;exitDx=0;exitDy=0;" edge="1" parent="1" source="Wn71OPN7gawvN4pDHcYE-142" target="Wn71OPN7gawvN4pDHcYE-141">
          <mxGeometry width="50" height="50" relative="1" as="geometry">
            <mxPoint x="-480" y="540" as="sourcePoint" />
            <mxPoint x="-430" y="490" as="targetPoint" />
          </mxGeometry>
        </mxCell>
      </root>
    </mxGraphModel>
  </diagram>
</mxfile>
